<svg width="1600" height="1000" viewBox="0 0 1600 1000" xmlns="http://www.w3.org/2000/svg">
  <defs>
    <linearGradient id="bg" x1="0%" y1="0%" x2="100%" y2="100%">
      <stop offset="0%" stop-color="#08101b"/>
      <stop offset="50%" stop-color="#132238"/>
      <stop offset="100%" stop-color="#223b4f"/>
    </linearGradient>
    <radialGradient id="glow1" cx="20%" cy="20%" r="60%">
      <stop offset="0%" stop-color="#ffffff" stop-opacity="0.2"/>
      <stop offset="100%" stop-color="#ffffff" stop-opacity="0"/>
    </radialGradient>
    <radialGradient id="glow2" cx="80%" cy="70%" r="55%">
      <stop offset="0%" stop-color="#38bdf8" stop-opacity="0.18"/>
      <stop offset="100%" stop-color="#38bdf8" stop-opacity="0"/>
    </radialGradient>
  </defs>

  <rect width="1600" height="1000" fill="url(#bg)"/>
  <rect width="1600" height="1000" fill="url(#glow1)"/>
  <rect width="1600" height="1000" fill="url(#glow2)"/>

  <!-- Sport field / court lines -->
  <rect x="120" y="150" width="1360" height="700" rx="24" fill="none" stroke="#f8fafc" stroke-opacity="0.2" stroke-width="3"/>
  <line x1="800" y1="150" x2="800" y2="850" stroke="#f8fafc" stroke-opacity="0.18" stroke-width="2"/>
  <rect x="220" y="220" width="1160" height="560" rx="18" fill="none" stroke="#f8fafc" stroke-opacity="0.14" stroke-width="2"/>

  <!-- Cricket-inspired elements -->
  <circle cx="320" cy="270" r="72" fill="#f8fafc" fill-opacity="0.12"/>
  <circle cx="320" cy="270" r="26" fill="#f8fafc" fill-opacity="0.24"/>
  <path d="M300 220 L340 320" stroke="#f8fafc" stroke-opacity="0.4" stroke-width="3"/>
  <path d="M256 252 L384 288" stroke="#f8fafc" stroke-opacity="0.3" stroke-width="3"/>
  <path d="M520 730 L620 630" stroke="#f8fafc" stroke-opacity="0.28" stroke-width="4"/>
  <path d="M590 740 L690 620" stroke="#f8fafc" stroke-opacity="0.24" stroke-width="4"/>

  <!-- Badminton-inspired elements -->
  <rect x="1040" y="220" width="240" height="160" rx="10" fill="#ffffff" fill-opacity="0.08"/>
  <line x1="1060" y1="240" x2="1260" y2="360" stroke="#f8fafc" stroke-opacity="0.35" stroke-width="3"/>
  <line x1="1260" y1="240" x2="1060" y2="360" stroke="#f8fafc" stroke-opacity="0.35" stroke-width="3"/>
  <circle cx="1160" cy="300" r="18" fill="#f8fafc" fill-opacity="0.2"/>
  <path d="M1185 300 C1230 285, 1260 255, 1280 215" stroke="#f8fafc" stroke-opacity="0.25" stroke-width="3"/>

  <!-- Abstract sporty accents -->
  <g opacity="0.16" stroke="#ffffff" stroke-width="2">
    <path d="M150 820 C430 720, 560 720, 760 820"/>
    <path d="M850 820 C1080 720, 1220 720, 1440 820"/>
  </g>
  <circle cx="1350" cy="760" r="80" fill="#ffffff" fill-opacity="0.1"/>
  <circle cx="250" cy="760" r="60" fill="#38bdf8" fill-opacity="0.12"/>
</svg>
